<svg width="1690" height="1689" xmlns="http://www.w3.org/2000/svg" xmlns:xlink="http://www.w3.org/1999/xlink" overflow="hidden"><defs><clipPath id="clip0"><rect x="455" y="455" width="1690" height="1689"/></clipPath></defs><g clip-path="url(#clip0)" transform="translate(-455 -455)"><path d="M893 483.518C893 467.768 905.768 455 921.518 455L1238.48 455C1254.23 455 1267 467.768 1267 483.518L1267 800.483C1267 816.232 1254.23 829 1238.48 829L921.518 829C905.768 829 893 816.232 893 800.483Z" fill="#424242" fill-rule="evenodd" fill-opacity="0.2"/><path d="M455 483.518C455 467.768 467.768 455 483.518 455L800.483 455C816.232 455 829 467.768 829 483.518L829 800.483C829 816.232 816.232 829 800.483 829L483.518 829C467.768 829 455 816.232 455 800.483Z" fill="#424242" fill-rule="evenodd" fill-opacity="0.2"/><path d="M893 921.518C893 905.768 905.768 893 921.518 893L1238.48 893C1254.23 893 1267 905.768 1267 921.518L1267 1238.48C1267 1254.23 1254.23 1267 1238.48 1267L921.518 1267C905.768 1267 893 1254.23 893 1238.48Z" fill="#424242" fill-rule="evenodd" fill-opacity="0.2"/><path d="M1769 921.518C1769 905.768 1781.77 893 1797.52 893L2115.48 893C2131.23 893 2144 905.768 2144 921.518L2144 1238.48C2144 1254.23 2131.23 1267 2115.48 1267L1797.52 1267C1781.77 1267 1769 1254.23 1769 1238.48Z" fill="#37474F" fill-rule="evenodd" fill-opacity="0.4"/><path d="M1331 483.518C1331 467.768 1343.77 455 1359.52 455L1676.48 455C1692.23 455 1705 467.768 1705 483.518L1705 800.483C1705 816.232 1692.23 829 1676.48 829L1359.52 829C1343.77 829 1331 816.232 1331 800.483Z" fill="#424242" fill-rule="evenodd" fill-opacity="0.2"/><path d="M1331 921.518C1331 905.768 1343.77 893 1359.52 893L1676.48 893C1692.23 893 1705 905.768 1705 921.518L1705 1238.48C1705 1254.23 1692.23 1267 1676.48 1267L1359.52 1267C1343.77 1267 1331 1254.23 1331 1238.48Z" fill="#424242" fill-rule="evenodd" fill-opacity="0.2"/><path d="M455 1797.59C455 1781.8 467.802 1769 483.594 1769L1239.41 1769C1255.2 1769 1268 1781.8 1268 1797.59L1268 2115.41C1268 2131.2 1255.2 2144 1239.41 2144L483.594 2144C467.802 2144 455 2131.2 455 2115.41Z" fill="#424242" fill-rule="evenodd" fill-opacity="0.2"/><path d="M455 921.518C455 905.768 467.768 893 483.518 893L800.483 893C816.232 893 829 905.768 829 921.518L829 1238.48C829 1254.23 816.232 1267 800.483 1267L483.518 1267C467.768 1267 455 1254.23 455 1238.48Z" fill="#424242" fill-rule="evenodd" fill-opacity="0.2"/><path d="M455 1359.52C455 1343.77 467.768 1331 483.518 1331L800.483 1331C816.232 1331 829 1343.77 829 1359.52L829 1676.48C829 1692.23 816.232 1705 800.483 1705L483.518 1705C467.768 1705 455 1692.23 455 1676.48Z" fill="#424242" fill-rule="evenodd" fill-opacity="0.2"/><path d="M1769 483.518C1769 467.768 1781.77 455 1797.52 455L2115.48 455C2131.23 455 2144 467.768 2144 483.518L2144 800.483C2144 816.232 2131.23 829 2115.48 829L1797.52 829C1781.77 829 1769 816.232 1769 800.483Z" fill="#37474F" fill-rule="evenodd" fill-opacity="0.4"/><path d="M893 1359.52C893 1343.77 905.768 1331 921.518 1331L1238.48 1331C1254.23 1331 1267 1343.77 1267 1359.52L1267 1676.48C1267 1692.23 1254.23 1705 1238.48 1705L921.518 1705C905.768 1705 893 1692.23 893 1676.48Z" fill="#424242" fill-rule="evenodd" fill-opacity="0.2"/><path d="M1331 1359.52C1331 1343.77 1343.77 1331 1359.52 1331L1676.48 1331C1692.23 1331 1705 1343.77 1705 1359.52L1705 1676.48C1705 1692.23 1692.23 1705 1676.48 1705L1359.52 1705C1343.77 1705 1331 1692.23 1331 1676.48Z" fill="#6200EE" fill-rule="evenodd"/><path d="M1769 1360.6C1769 1344.8 1781.8 1332 1797.6 1332L2115.44 1332C2131.23 1332 2144.03 1344.8 2144.03 1360.6L2144.03 2115.4C2144.03 2131.2 2131.23 2144 2115.44 2144L1797.6 2144C1781.8 2144 1769 2131.2 1769 2115.4Z" fill="#37474F" fill-rule="evenodd" fill-opacity="0.4"/><path d="M1331 1797.52C1331 1781.77 1343.77 1769 1359.52 1769L1676.48 1769C1692.23 1769 1705 1781.77 1705 1797.52L1705 2115.48C1705 2131.23 1692.23 2144 1676.48 2144L1359.52 2144C1343.77 2144 1331 2131.23 1331 2115.48Z" fill="#4527A0" fill-rule="evenodd" fill-opacity="0.6"/></g></svg>